# xmcd
#
# Track frame offsets:
#	150
#	16218
#	65339
#	84600
#	95557
#	113374
#	128756
#	140669
#	165492
#	185661
#	203938
#	226857
#	239543
#	258904
#
# Disc length: 3659 seconds
#
# Revision: 5
# Processed by: cddbd v1.5.2PL0 Copyright (c) Steve Scherf et al.
# Submitted via: EZCDAudioConverter 2.1.7.1
#
DISCID=b70e490e
DTITLE=Fairport Convention - Live At The BBC 3/4
DYEAR=2007
DGENRE=
TTITLE0=Sir Patrick Spens
TTITLE1=The Bonny Bunch Of Roses
TTITLE2=Dirty Linen (Jigs and Reels)
TTITLE3=Now Be Thankful
TTITLE4=The Journeyman's Grace
TTITLE5=Now Be Thankful
TTITLE6=Tokyo
TTITLE7=Matthew, Mark, Luke And John
TTITLE8=Possibly Parsons Green
TTITLE9=Rosie
TTITLE10=John The Gun
TTITLE11=Fiddlestix
TTITLE12=Rising For The Moon
TTITLE13=Down In The Flood
EXTD=
EXTT0=
EXTT1=
EXTT2=
EXTT3=
EXTT4=
EXTT5=
EXTT6=
EXTT7=
EXTT8=
EXTT9=
EXTT10=
EXTT11=
EXTT12=
EXTT13=
PLAYORDER=
